<svg viewBox="0 0 30 40" xmlns="http://www.w3.org/2000/svg"><defs><linearGradient id="c" x2="0" y1="126.38" y2="128.66" gradientUnits="userSpaceOnUse"><stop offset="0"/><stop stop-color="#666" offset="1"/></linearGradient><linearGradient id="b" x1="204" x2="206" gradientUnits="userSpaceOnUse"><stop stop-color="#666" offset="0"/><stop stop-color="#b3b3b3" offset=".125"/><stop stop-color="#ccc" offset=".227"/><stop stop-color="#ebebeb" offset=".344"/><stop stop-color="#b3b3b3" offset=".688"/><stop stop-color="gray" offset=".859"/><stop stop-color="#4d4d4d" offset="1"/></linearGradient><radialGradient id="a" cx="204" cy="106.36" r="7" gradientUnits="userSpaceOnUse"><stop stop-color="#ffd5d5" offset="0"/><stop stop-color="#ff8080" offset=".143"/><stop stop-color="#ff2a2a" offset=".346"/><stop stop-color="#d40000" offset=".578"/><stop stop-color="maroon" offset="1"/></radialGradient></defs><g fill-rule="evenodd"><path d="M207 127.362c0 .552-.895 1-2 1s-2-.448-2-1 .895-1 2-1 2 .448 2 1z" fill="url(#c)" transform="translate(-190 -97.359)"/><path d="M13 30.094c-.005-.028 0-.065 0-.094 0-.552.895-1 2-1s2 .448 2 1c0 .03.005.066 0 .094-.069-.521-.94-.937-2-.937s-1.931.416-2 .937z" fill="#999"/><path d="M204 111.36h2v16s-.006.465-.992.465c-1.012 0-1.008-.465-1.008-.465z" fill="url(#b)" transform="translate(-190 -97.359)"/><path d="M210 107.36a5 5 0 11-10 0 5 5 0 0110 0z" fill="url(#a)" transform="translate(-190 -97.359)"/><path d="M13.156 30.329c.095.135.231.24.438.343.354.177.86.313 1.406.313s1.052-.136 1.406-.313c.207-.103.343-.208.438-.343a1.635 1.635 0 01-.469.312c-.366.173-.84.25-1.375.25s-1.009-.077-1.375-.25a1.634 1.634 0 01-.469-.312z" fill="#ececec"/></g></svg>