<?xml version="1.0" standalone="no"?>
<!DOCTYPE svg PUBLIC "-//W3C//DTD SVG 20010904//EN"
 "http://www.w3.org/TR/2001/REC-SVG-20010904/DTD/svg10.dtd">
<svg version="1.0" xmlns="http://www.w3.org/2000/svg"
 width="260.000000pt" height="260.000000pt" viewBox="0 0 260.000000 260.000000"
 preserveAspectRatio="xMidYMid meet">
<metadata>
Created by potrace 1.14, written by Peter Selinger 2001-2017
</metadata>
<g transform="translate(0.000000,260.000000) scale(0.100000,-0.100000)"
fill="#000000" stroke="none">
<path d="M0 1300 l0 -1300 1300 0 1300 0 0 1300 0 1300 -1300 0 -1300 0 0
-1300z m1225 240 c49 -46 40 -113 -25 -170 l-39 -35 62 -74 61 -74 18 41 c10
22 21 55 24 71 6 28 4 32 -25 37 -17 4 -31 13 -31 20 0 11 21 14 95 14 52 0
95 -4 95 -8 0 -5 -17 -16 -37 -24 -33 -12 -44 -26 -79 -97 l-41 -82 37 -33
c20 -18 53 -36 73 -40 23 -4 37 -13 37 -21 0 -12 -15 -15 -68 -15 -62 0 -71 3
-96 29 l-28 29 -42 -30 c-58 -40 -112 -46 -168 -19 -99 47 -103 166 -10 241
l41 32 -27 41 c-48 73 -29 156 43 188 33 15 104 3 130 -21z m-335 -45 c0 -73
-18 -88 -40 -35 -20 48 -45 60 -127 60 l-73 0 0 -95 0 -95 48 0 c52 0 77 16
84 55 2 11 11 21 21 23 15 3 17 -7 17 -98 0 -90 -2 -101 -17 -98 -9 2 -20 17
-25 34 -9 36 -49 58 -94 52 l-29 -3 -3 -82 c-4 -117 1 -123 98 -123 87 0 97 5
131 71 10 21 27 39 36 39 13 0 15 -8 9 -46 -3 -26 -6 -60 -6 -75 l0 -29 -205
0 c-168 0 -205 2 -205 14 0 8 12 17 27 21 15 3 31 12 35 18 11 18 10 375 -2
397 -5 10 -21 21 -35 24 -14 4 -25 13 -25 21 0 13 29 15 190 15 l190 0 0 -65z
m830 -117 c36 -97 68 -179 70 -182 4 -4 118 290 136 352 5 19 164 17 164 -2 0
-8 -14 -17 -30 -21 -19 -4 -32 -14 -35 -28 -3 -12 -4 -105 -3 -207 l3 -185 33
-14 c17 -8 32 -21 32 -28 0 -10 -26 -13 -110 -13 -87 0 -110 3 -110 14 0 8 15
17 35 20 25 5 36 13 40 29 3 12 4 103 3 202 l-3 180 -58 -150 c-32 -82 -70
-180 -85 -218 -14 -37 -30 -66 -36 -64 -6 2 -44 96 -86 210 l-75 207 -3 -177
c-3 -191 1 -204 54 -217 13 -4 24 -13 24 -21 0 -12 -18 -15 -100 -15 -82 0
-100 3 -100 15 0 8 11 17 25 21 50 12 55 34 55 222 0 170 0 173 -25 197 -13
14 -31 25 -40 25 -8 0 -15 7 -15 15 0 13 14 15 87 13 l87 -3 66 -177z"/>
<path d="M1106 1508 c-9 -12 -16 -29 -16 -37 0 -25 41 -101 55 -101 21 0 65
59 65 89 0 40 -26 71 -60 71 -18 0 -34 -8 -44 -22z"/>
<path d="M1071 1279 c-48 -79 -7 -183 72 -183 38 0 87 21 87 37 0 8 -76 107
-131 171 -4 5 -17 -7 -28 -25z"/>
</g>
</svg>
